<svg width="94" height="14" viewBox="0 0 94 14" fill="none" xmlns="http://www.w3.org/2000/svg">
<path d="M1.088 13C0.968001 13 0.872001 12.964 0.800001 12.892C0.728001 12.82 0.692001 12.724 0.692001 12.604V0.813971C0.692001 0.681971 0.728001 0.579971 0.800001 0.507971C0.872001 0.43597 0.968001 0.399971 1.088 0.399971H8.108C8.24 0.399971 8.342 0.43597 8.414 0.507971C8.486 0.579971 8.522 0.681971 8.522 0.813971V1.08397C8.522 1.20397 8.486 1.29997 8.414 1.37197C8.342 1.44397 8.24 1.47997 8.108 1.47997H1.826V6.06997H7.712C7.844 6.06997 7.946 6.10597 8.018 6.17797C8.09 6.24997 8.126 6.35197 8.126 6.48397V6.75397C8.126 6.87397 8.09 6.96997 8.018 7.04197C7.946 7.11397 7.844 7.14997 7.712 7.14997H1.826V11.92H8.252C8.384 11.92 8.486 11.956 8.558 12.028C8.63 12.1 8.666 12.202 8.666 12.334V12.604C8.666 12.724 8.63 12.82 8.558 12.892C8.486 12.964 8.384 13 8.252 13H1.088Z" fill="#8F8F8F"/>
<path d="M11.5063 13C11.3863 13 11.2903 12.964 11.2183 12.892C11.1463 12.82 11.1103 12.724 11.1103 12.604V4.03597C11.1103 3.91597 11.1463 3.81997 11.2183 3.74797C11.2903 3.67597 11.3863 3.63997 11.5063 3.63997H11.8123C11.9323 3.63997 12.0283 3.67597 12.1003 3.74797C12.1723 3.81997 12.2083 3.91597 12.2083 4.03597V4.88197C12.5323 4.46197 12.9223 4.11997 13.3783 3.85597C13.8463 3.59197 14.4643 3.45997 15.2323 3.45997C16.0483 3.45997 16.7263 3.63997 17.2663 3.99997C17.8183 4.34797 18.2263 4.82797 18.4903 5.43997C18.7663 6.03997 18.9043 6.72397 18.9043 7.49197V12.604C18.9043 12.724 18.8683 12.82 18.7963 12.892C18.7243 12.964 18.6283 13 18.5083 13H18.2023C18.0823 13 17.9863 12.964 17.9143 12.892C17.8423 12.82 17.8063 12.724 17.8063 12.604V7.58197C17.8063 6.62197 17.5723 5.87197 17.1043 5.33197C16.6363 4.77997 15.9523 4.50397 15.0523 4.50397C14.2003 4.50397 13.5103 4.77997 12.9823 5.33197C12.4663 5.87197 12.2083 6.62197 12.2083 7.58197V12.604C12.2083 12.724 12.1723 12.82 12.1003 12.892C12.0283 12.964 11.9323 13 11.8123 13H11.5063Z" fill="#8F8F8F"/>
<path d="M24.7369 13C24.1129 13 23.6209 12.868 23.2609 12.604C22.9009 12.34 22.6489 11.98 22.5049 11.524C22.3609 11.068 22.2889 10.558 22.2889 9.99397V4.68397H20.8849C20.7649 4.68397 20.6689 4.64797 20.5969 4.57597C20.5249 4.50397 20.4889 4.40797 20.4889 4.28797V4.03597C20.4889 3.91597 20.5249 3.81997 20.5969 3.74797C20.6689 3.67597 20.7649 3.63997 20.8849 3.63997H22.2889V0.615971C22.2889 0.495971 22.3249 0.399971 22.3969 0.327971C22.4689 0.255971 22.5649 0.219971 22.6849 0.219971H22.9909C23.1109 0.219971 23.2069 0.255971 23.2789 0.327971C23.3509 0.399971 23.3869 0.495971 23.3869 0.615971V3.63997H25.6189C25.7389 3.63997 25.8349 3.67597 25.9069 3.74797C25.9789 3.81997 26.0149 3.91597 26.0149 4.03597V4.28797C26.0149 4.40797 25.9789 4.50397 25.9069 4.57597C25.8349 4.64797 25.7389 4.68397 25.6189 4.68397H23.3869V9.92197C23.3869 10.558 23.4889 11.056 23.6929 11.416C23.9089 11.776 24.2869 11.956 24.8269 11.956H25.7989C25.9189 11.956 26.0149 11.992 26.0869 12.064C26.1589 12.136 26.1949 12.232 26.1949 12.352V12.604C26.1949 12.724 26.1589 12.82 26.0869 12.892C26.0149 12.964 25.9189 13 25.7989 13H24.7369Z" fill="#8F8F8F"/>
<path d="M31.5297 13.18C30.3657 13.18 29.4417 12.802 28.7577 12.046C28.0737 11.278 27.6837 10.276 27.5877 9.03997C27.5757 8.85997 27.5697 8.61997 27.5697 8.31997C27.5697 8.01997 27.5757 7.77997 27.5877 7.59997C27.6477 6.78397 27.8397 6.06397 28.1637 5.43997C28.4877 4.81597 28.9317 4.32997 29.4957 3.98197C30.0717 3.63397 30.7497 3.45997 31.5297 3.45997C32.3697 3.45997 33.0837 3.64597 33.6717 4.01797C34.2597 4.38997 34.7097 4.92397 35.0217 5.61997C35.3457 6.31597 35.5077 7.14397 35.5077 8.10397V8.37397C35.5077 8.49397 35.4657 8.58997 35.3817 8.66197C35.3097 8.73397 35.2137 8.76997 35.0937 8.76997H28.6857C28.6857 8.76997 28.6857 8.79397 28.6857 8.84197C28.6857 8.88997 28.6857 8.92597 28.6857 8.94997C28.7097 9.48997 28.8357 10.006 29.0637 10.498C29.2917 10.978 29.6157 11.374 30.0357 11.686C30.4557 11.986 30.9537 12.136 31.5297 12.136C32.0457 12.136 32.4717 12.058 32.8077 11.902C33.1557 11.746 33.4317 11.578 33.6357 11.398C33.8397 11.206 33.9717 11.062 34.0317 10.966C34.1397 10.81 34.2237 10.72 34.2837 10.696C34.3437 10.66 34.4397 10.642 34.5717 10.642H34.8597C34.9677 10.642 35.0577 10.678 35.1297 10.75C35.2137 10.81 35.2497 10.894 35.2377 11.002C35.2257 11.17 35.1297 11.38 34.9497 11.632C34.7817 11.872 34.5357 12.112 34.2117 12.352C33.8997 12.592 33.5157 12.79 33.0597 12.946C32.6037 13.102 32.0937 13.18 31.5297 13.18ZM28.6857 7.76197H34.4097V7.68997C34.4097 7.08997 34.2957 6.54997 34.0677 6.06997C33.8397 5.58997 33.5097 5.21197 33.0777 4.93597C32.6457 4.64797 32.1297 4.50397 31.5297 4.50397C30.9297 4.50397 30.4137 4.64797 29.9817 4.93597C29.5617 5.21197 29.2377 5.58997 29.0097 6.06997C28.7937 6.54997 28.6857 7.08997 28.6857 7.68997V7.76197Z" fill="#8F8F8F"/>
<path d="M38.2778 13C38.1578 13 38.0618 12.964 37.9898 12.892C37.9178 12.82 37.8818 12.724 37.8818 12.604V4.05397C37.8818 3.93397 37.9178 3.83797 37.9898 3.76597C38.0618 3.68197 38.1578 3.63997 38.2778 3.63997H38.5658C38.6858 3.63997 38.7818 3.68197 38.8538 3.76597C38.9378 3.83797 38.9798 3.93397 38.9798 4.05397V4.88197C39.1958 4.46197 39.5078 4.14997 39.9158 3.94597C40.3238 3.74197 40.8278 3.63997 41.4278 3.63997H42.0938C42.2138 3.63997 42.3098 3.67597 42.3818 3.74797C42.4538 3.81997 42.4898 3.91597 42.4898 4.03597V4.28797C42.4898 4.40797 42.4538 4.50397 42.3818 4.57597C42.3098 4.64797 42.2138 4.68397 42.0938 4.68397H41.3198C40.5998 4.68397 40.0298 4.89397 39.6098 5.31397C39.1898 5.73397 38.9798 6.30397 38.9798 7.02397V12.604C38.9798 12.724 38.9378 12.82 38.8538 12.892C38.7818 12.964 38.6858 13 38.5658 13H38.2778Z" fill="#8F8F8F"/>
<path d="M48.9708 13C48.8508 13 48.7548 12.964 48.6828 12.892C48.6108 12.82 48.5748 12.724 48.5748 12.604V0.813971C48.5748 0.681971 48.6108 0.579971 48.6828 0.507971C48.7548 0.43597 48.8508 0.399971 48.9708 0.399971H49.3488C49.4688 0.399971 49.5588 0.42997 49.6188 0.48997C49.6788 0.54997 49.7148 0.59197 49.7268 0.615971L56.3688 10.768V0.813971C56.3688 0.681971 56.4048 0.579971 56.4768 0.507971C56.5488 0.43597 56.6448 0.399971 56.7648 0.399971H57.0888C57.2208 0.399971 57.3228 0.43597 57.3948 0.507971C57.4668 0.579971 57.5028 0.681971 57.5028 0.813971V12.586C57.5028 12.706 57.4668 12.808 57.3948 12.892C57.3228 12.964 57.2268 13 57.1068 13H56.7108C56.5908 13 56.5008 12.97 56.4408 12.91C56.3928 12.85 56.3568 12.808 56.3328 12.784L49.7088 2.66797V12.604C49.7088 12.724 49.6728 12.82 49.6008 12.892C49.5288 12.964 49.4268 13 49.2948 13H48.9708Z" fill="#8F8F8F"/>
<path d="M63.1655 13.18C62.5895 13.18 62.0555 13.06 61.5635 12.82C61.0835 12.58 60.6935 12.262 60.3935 11.866C60.0935 11.458 59.9435 11.002 59.9435 10.498C59.9435 9.68197 60.2735 9.02797 60.9335 8.53597C61.5935 8.04397 62.4515 7.72597 63.5075 7.58197L66.3515 7.18597V6.55597C66.3515 5.91997 66.1535 5.42197 65.7575 5.06197C65.3735 4.68997 64.7555 4.50397 63.9035 4.50397C63.2795 4.50397 62.7755 4.62997 62.3915 4.88197C62.0075 5.12197 61.7435 5.43997 61.5995 5.83597C61.5395 6.01597 61.4255 6.10597 61.2575 6.10597H60.9695C60.8255 6.10597 60.7235 6.06997 60.6635 5.99797C60.6035 5.91397 60.5735 5.81797 60.5735 5.70997C60.5735 5.54197 60.6335 5.33197 60.7535 5.07997C60.8855 4.82797 61.0835 4.58197 61.3475 4.34197C61.6115 4.08997 61.9535 3.87997 62.3735 3.71197C62.7935 3.54397 63.3035 3.45997 63.9035 3.45997C64.6115 3.45997 65.1935 3.55597 65.6495 3.74797C66.1175 3.93997 66.4775 4.19197 66.7295 4.50397C66.9935 4.80397 67.1795 5.13997 67.2875 5.51197C67.3955 5.88397 67.4495 6.24997 67.4495 6.60997V12.604C67.4495 12.724 67.4135 12.82 67.3415 12.892C67.2695 12.964 67.1735 13 67.0535 13H66.7475C66.6275 13 66.5315 12.964 66.4595 12.892C66.3875 12.82 66.3515 12.724 66.3515 12.604V11.758C66.2075 11.974 66.0035 12.19 65.7395 12.406C65.4755 12.622 65.1335 12.808 64.7135 12.964C64.3055 13.108 63.7895 13.18 63.1655 13.18ZM63.3455 12.136C63.8975 12.136 64.4015 12.016 64.8575 11.776C65.3135 11.536 65.6735 11.17 65.9375 10.678C66.2135 10.174 66.3515 9.54397 66.3515 8.78797V8.17597L64.0295 8.49997C63.0455 8.63197 62.3015 8.85997 61.7975 9.18397C61.2935 9.50797 61.0415 9.91597 61.0415 10.408C61.0415 10.804 61.1555 11.128 61.3835 11.38C61.6115 11.632 61.8995 11.824 62.2475 11.956C62.6075 12.076 62.9735 12.136 63.3455 12.136Z" fill="#8F8F8F"/>
<path d="M70.6919 13C70.5719 13 70.4759 12.964 70.4039 12.892C70.3319 12.82 70.2959 12.724 70.2959 12.604V4.03597C70.2959 3.91597 70.3319 3.81997 70.4039 3.74797C70.4759 3.67597 70.5719 3.63997 70.6919 3.63997H70.9979C71.1179 3.63997 71.2139 3.67597 71.2859 3.74797C71.3579 3.81997 71.3939 3.91597 71.3939 4.03597V4.66597C71.6939 4.28197 72.0479 3.98797 72.4559 3.78397C72.8759 3.56797 73.3799 3.45997 73.9679 3.45997C75.3119 3.45997 76.2719 4.02397 76.8479 5.15197C77.1239 4.63597 77.5259 4.22797 78.0539 3.92797C78.5939 3.61597 79.2119 3.45997 79.9079 3.45997C80.5439 3.45997 81.1139 3.60997 81.6179 3.90997C82.1339 4.19797 82.5359 4.62997 82.8239 5.20597C83.1239 5.78197 83.2739 6.50197 83.2739 7.36597V12.604C83.2739 12.724 83.2379 12.82 83.1659 12.892C83.0939 12.964 82.9979 13 82.8779 13H82.5719C82.4519 13 82.3559 12.964 82.2839 12.892C82.2119 12.82 82.1759 12.724 82.1759 12.604V7.54597C82.1759 6.75397 82.0619 6.14197 81.8339 5.70997C81.6059 5.26597 81.3059 4.95397 80.9339 4.77397C80.5619 4.59397 80.1599 4.50397 79.7279 4.50397C79.3679 4.50397 79.0019 4.59397 78.6299 4.77397C78.2579 4.95397 77.9459 5.26597 77.6939 5.70997C77.4539 6.14197 77.3339 6.75397 77.3339 7.54597V12.604C77.3339 12.724 77.2979 12.82 77.2259 12.892C77.1539 12.964 77.0579 13 76.9379 13H76.6319C76.5119 13 76.4159 12.964 76.3439 12.892C76.2719 12.82 76.2359 12.724 76.2359 12.604V7.54597C76.2359 6.75397 76.1159 6.14197 75.8759 5.70997C75.6359 5.26597 75.3299 4.95397 74.9579 4.77397C74.5859 4.59397 74.1959 4.50397 73.7879 4.50397C73.4279 4.50397 73.0619 4.59397 72.6899 4.77397C72.3179 4.95397 72.0059 5.26597 71.7539 5.70997C71.5139 6.14197 71.3939 6.74797 71.3939 7.52797V12.604C71.3939 12.724 71.3579 12.82 71.2859 12.892C71.2139 12.964 71.1179 13 70.9979 13H70.6919Z" fill="#8F8F8F"/>
<path d="M89.5726 13.18C88.4086 13.18 87.4846 12.802 86.8006 12.046C86.1166 11.278 85.7266 10.276 85.6306 9.03997C85.6186 8.85997 85.6126 8.61997 85.6126 8.31997C85.6126 8.01997 85.6186 7.77997 85.6306 7.59997C85.6906 6.78397 85.8826 6.06397 86.2066 5.43997C86.5306 4.81597 86.9746 4.32997 87.5386 3.98197C88.1146 3.63397 88.7926 3.45997 89.5726 3.45997C90.4126 3.45997 91.1266 3.64597 91.7146 4.01797C92.3026 4.38997 92.7526 4.92397 93.0646 5.61997C93.3886 6.31597 93.5506 7.14397 93.5506 8.10397V8.37397C93.5506 8.49397 93.5086 8.58997 93.4246 8.66197C93.3526 8.73397 93.2566 8.76997 93.1366 8.76997H86.7286C86.7286 8.76997 86.7286 8.79397 86.7286 8.84197C86.7286 8.88997 86.7286 8.92597 86.7286 8.94997C86.7526 9.48997 86.8786 10.006 87.1066 10.498C87.3346 10.978 87.6586 11.374 88.0786 11.686C88.4986 11.986 88.9966 12.136 89.5726 12.136C90.0886 12.136 90.5146 12.058 90.8506 11.902C91.1986 11.746 91.4746 11.578 91.6786 11.398C91.8826 11.206 92.0146 11.062 92.0746 10.966C92.1826 10.81 92.2666 10.72 92.3266 10.696C92.3866 10.66 92.4826 10.642 92.6146 10.642H92.9026C93.0106 10.642 93.1006 10.678 93.1726 10.75C93.2566 10.81 93.2926 10.894 93.2806 11.002C93.2686 11.17 93.1726 11.38 92.9926 11.632C92.8246 11.872 92.5786 12.112 92.2546 12.352C91.9426 12.592 91.5586 12.79 91.1026 12.946C90.6466 13.102 90.1366 13.18 89.5726 13.18ZM86.7286 7.76197H92.4526V7.68997C92.4526 7.08997 92.3386 6.54997 92.1106 6.06997C91.8826 5.58997 91.5526 5.21197 91.1206 4.93597C90.6886 4.64797 90.1726 4.50397 89.5726 4.50397C88.9726 4.50397 88.4566 4.64797 88.0246 4.93597C87.6046 5.21197 87.2806 5.58997 87.0526 6.06997C86.8366 6.54997 86.7286 7.08997 86.7286 7.68997V7.76197Z" fill="#8F8F8F"/>
</svg>
