<svg width="150" height="150" viewBox="0 0 150 150" fill="none" xmlns="http://www.w3.org/2000/svg">
<path d="M101.28 75.6252L96.5998 72.745V63.745C96.5998 61.5854 94.9198 59.9045 92.7594 59.9045C90.5998 59.9045 88.9189 61.5845 88.9189 63.745L88.9198 74.9054C88.9198 76.2255 89.6397 77.4258 90.7194 78.1456L97.199 82.1056C97.7992 82.4656 98.519 82.7058 99.2389 82.7058C100.559 82.7058 101.759 81.9859 102.479 80.9061C102.959 80.0657 103.199 78.9859 102.959 78.0259C102.84 77.065 102.119 76.2254 101.28 75.6253L101.28 75.6252Z" fill="#058B8C"/>
<path d="M128.64 66.9853L121.56 65.9055C120.72 63.7459 120.48 63.1457 119.52 60.9853L123.84 55.2255C125.04 53.6652 124.8 51.5057 123.48 50.1855L117.6 44.3053C116.28 42.9852 114.12 42.745 112.56 43.9453L106.8 48.2653C104.641 47.4249 104.04 47.1855 101.88 46.2254L100.8 39.1456C100.56 37.2254 98.88 35.7856 96.9598 35.7856H88.6795C86.7593 35.7856 85.0793 37.2254 84.8391 39.1456L83.7593 46.2254C81.5997 47.0658 80.9995 47.3052 78.8391 48.2653L73.0793 43.9453C71.519 42.745 69.3595 42.9852 68.0393 44.3053L62.1591 50.1855C60.839 51.5055 60.5988 53.665 61.7991 55.2255L66.1191 60.9853C65.2787 63.1448 65.0393 63.745 64.0793 65.9055L56.9995 66.9853C55.0793 67.2255 53.6395 68.9055 53.6395 70.8257V79.1059C53.6395 81.0261 55.0792 82.7061 56.9995 82.9463L64.0793 84.0261C64.9197 86.1857 65.1591 86.7859 66.1191 88.9464L61.7991 94.7062C60.5988 96.2664 60.839 98.4259 62.1591 99.7462L68.0393 105.626C69.3593 106.946 71.5189 107.187 73.0793 105.986L78.8391 101.666C80.9987 102.507 81.5989 102.746 83.7593 103.706L84.8391 110.786C85.0793 112.706 86.7593 114.146 88.6795 114.146H96.9598C98.88 114.146 100.56 112.706 100.8 110.786L101.88 103.706C104.04 102.866 104.64 102.626 106.8 101.666L112.56 105.986C114.12 107.187 116.28 106.946 117.6 105.626L123.48 99.7462C124.8 98.4261 125.04 96.2666 123.84 94.7062L119.52 88.9464C120.361 86.7868 120.6 86.1866 121.56 84.0261L128.76 82.9463C130.681 82.7061 132.12 81.0262 132.12 79.1059V70.8257C132 68.7858 130.56 67.2255 128.64 66.9853H128.64ZM92.8798 94.1053C82.1998 94.1053 73.6794 85.4653 73.6794 74.9048C73.6794 64.3444 82.1998 55.7044 92.8798 55.7044C103.56 55.7044 112.08 64.3444 112.08 75.0244C112.079 85.7044 103.439 94.1051 92.8798 94.1051V94.1053Z" fill="#058B8C"/>
<path d="M48.7198 52.3452H29.3998C27.1196 52.3452 25.1993 54.1449 25.1993 56.5456C25.1993 58.8258 26.999 60.7461 29.3998 60.7461H48.6002C50.8804 60.7461 52.8006 58.9464 52.8006 56.5456C52.7998 54.2654 51.0001 52.3452 48.72 52.3452H48.7198Z" fill="#058B8C"/>
<path d="M45.4798 74.9053C45.4798 72.625 43.6801 70.7048 41.2793 70.7048H22.2004C19.9202 70.7048 18 72.5045 18 74.9053C18 77.305 19.7997 79.1057 22.2004 79.1057H41.4008C43.6802 79.1057 45.4798 77.1855 45.4798 74.9053Z" fill="#058B8C"/>
<path d="M48.7198 89.0652H29.3998C27.1196 89.0652 25.1993 90.8649 25.1993 93.2656C25.1993 95.5459 26.999 97.4661 29.3998 97.4661H48.6002C50.8804 97.4661 52.8006 95.6664 52.8006 93.2656C52.7998 90.9854 51.0001 89.0652 48.72 89.0652H48.7198Z" fill="#058B8C"/>
</svg>
