<svg width="150" height="150" viewBox="0 0 150 150" fill="none" xmlns="http://www.w3.org/2000/svg">
<path d="M33.6771 79.2772H39.1975L31.9971 86.4776C30.3172 88.1576 30.3172 91.0378 31.9971 92.7178C33.6771 94.3978 36.5573 94.3978 38.2373 92.7178L51.6771 79.278H64.3969L46.6371 97.0378C44.9572 98.7178 44.9572 101.598 46.6371 103.278C48.3171 104.958 51.1973 104.958 52.8773 103.278L70.6371 85.5182V98.238L57.1973 111.678C55.5174 113.358 55.5174 116.238 57.1973 117.918C58.8773 119.598 61.7575 119.598 63.4375 117.918L70.638 110.718V116.238C70.638 118.638 72.5582 120.558 74.958 120.558C77.3577 120.558 79.278 118.638 79.278 116.238V110.718L86.4784 117.918C88.1583 119.598 90.7984 119.598 92.7186 117.918C94.3986 116.238 94.3986 113.358 92.7186 111.678L79.2788 98.238V87.4385L95.1193 103.279C96.7992 104.959 99.4392 104.959 101.359 103.279C103.039 101.599 103.039 98.9589 101.359 97.0387L83.5997 79.2789H98.4799L111.92 92.7187C113.6 94.3986 116.48 94.3986 118.16 92.7187C119.84 91.0387 119.84 88.3987 118.16 86.4785L110.959 79.278H116.48C118.88 79.278 120.8 77.3578 120.8 74.958C120.8 72.5582 118.88 70.638 116.48 70.638H110.959L118.16 63.4376C119.84 61.7576 119.84 58.8774 118.16 57.1974C116.48 55.5174 113.6 55.5174 111.92 57.1974L98.4799 70.6372H85.7601L101.36 55.037C103.04 53.357 103.04 50.4767 101.36 48.7967C99.6804 47.1168 96.8001 47.1168 95.1201 48.7967L79.2797 64.6372V51.6772L92.7195 38.2374C94.3994 36.5574 94.3994 33.9174 92.7195 31.9972C91.0395 30.3172 88.1593 30.3172 86.4793 31.9972L79.2788 39.1976L79.2771 33.6772C79.2771 31.2774 77.357 29.3572 74.9571 29.3572C72.5573 29.3572 70.6371 31.2774 70.6371 33.6772V39.1976L63.4367 31.9972C61.7568 30.3172 59.1167 30.3172 57.1965 31.9972C55.5165 33.6771 55.5165 36.5574 57.1965 38.2374L70.6363 51.6772V66.5574L52.8765 48.7976C51.1965 47.1176 48.5565 47.1176 46.6363 48.7976C44.9563 50.4776 44.9563 53.1176 46.6363 55.0378L62.2365 70.638H51.4369L37.9971 57.1982C36.5574 55.5166 33.9174 55.5166 32.2374 57.1966C30.5574 58.8765 30.5574 61.5166 32.2374 63.4368L39.4378 70.6372H33.6771C31.2774 70.6372 29.3571 72.5574 29.3571 74.9572C29.3571 77.357 31.2773 79.2772 33.6771 79.2772L33.6771 79.2772Z" fill="#058B8C"/>
</svg>
