<svg width="150" height="150" viewBox="0 0 150 150" fill="none" xmlns="http://www.w3.org/2000/svg">
<path d="M94.337 72.6903C97.5772 72.81 100.577 74.2506 102.737 76.6503C102.857 76.8906 103.097 77.13 103.337 77.3702L110.297 75.2106C117.137 69.0908 124.337 60.2106 124.337 49.2906V33.3306C124.337 31.6507 123.017 30.2108 121.337 29.9706C109.697 28.0504 103.337 22.7702 100.098 19.1702C98.7776 17.6099 96.2572 17.6099 94.938 19.1702C91.8183 22.7704 85.4585 28.0504 73.8182 29.8502C72.1383 30.0904 70.8182 31.5302 70.8182 33.2102V49.1702C70.8182 58.4104 75.9778 66.2102 81.7385 72.0902L94.337 72.6903ZM84.7376 47.0103C86.0577 45.6903 88.2172 45.6903 89.6579 47.0103L94.3379 51.6903L105.497 40.5307C106.817 39.2107 108.977 39.2107 110.418 40.5307C111.738 41.8508 111.738 44.0103 110.418 45.451L96.7377 59.0103C96.1375 59.6105 95.1774 59.9704 94.3379 59.9704C93.3778 59.9704 92.5382 59.6105 91.9381 59.0103L84.7376 51.9305C83.4176 50.6105 83.4176 48.3303 84.7376 47.0103Z" fill="#058B8C"/>
<path d="M27.137 103.17L19.5768 113.011C18.7364 114.091 18.9766 115.771 20.0564 116.611L39.6166 131.611C40.6964 132.451 42.3764 132.211 43.2169 131.131L50.7771 121.291L27.7371 103.651C27.4968 103.53 27.2566 103.291 27.1369 103.171L27.137 103.17Z" fill="#058B8C"/>
<path d="M129.137 80.1304C127.577 78.4504 125.177 77.8502 123.017 78.4504L104.897 83.9708V85.2909C104.657 90.3309 100.937 94.6509 95.8968 95.6109L94.6965 95.8511C88.0962 97.1712 81.3765 98.0107 74.6565 98.1314L69.136 98.2511C67.4561 98.2511 66.0162 96.931 66.0162 95.2511C66.0162 93.5711 67.3363 92.1313 69.0162 92.1313L74.5367 92.0116C80.8967 91.7713 87.2565 91.0515 93.4967 89.852L94.697 89.6118C96.9772 89.1321 98.657 87.212 98.7768 84.9317C98.8965 83.6117 98.4169 82.2917 97.4568 81.212C96.4967 80.2519 95.2972 79.6517 93.8566 79.532L65.0565 78.3317C61.8163 78.212 58.6965 79.1721 56.0565 80.9717L31.9365 98.2502L56.6565 117.091L80.8966 119.611C85.097 120.091 89.417 118.891 92.7768 116.251L128.537 88.771C129.857 87.6912 130.696 86.2506 130.817 84.5706C130.817 82.8898 130.337 81.3304 129.137 80.1299V80.1304Z" fill="#058B8C"/>
</svg>
